<svg xmlns="http://www.w3.org/2000/svg" width="11" height="11" viewBox="0 0 11 11" fill="none">
<path d="M5.50001 9.625C4.9211 9.1312 4.38451 8.58986 3.89584 8.00662C3.16251 7.13075 2.29167 5.82633 2.29167 4.58333C2.29135 3.94852 2.47936 3.32789 2.83191 2.79997C3.18445 2.27205 3.68568 1.86058 4.27216 1.61764C4.85864 1.37469 5.50401 1.31119 6.1266 1.43517C6.74919 1.55915 7.321 1.86504 7.76967 2.31412C8.06839 2.61152 8.30517 2.9652 8.46629 3.35471C8.62741 3.74422 8.70968 4.16182 8.70834 4.58333C8.70834 5.82633 7.83751 7.13075 7.10417 8.00662C6.6155 8.58986 6.07891 9.1312 5.50001 9.625ZM5.50001 3.20833C5.13533 3.20833 4.7856 3.3532 4.52773 3.61106C4.26987 3.86892 4.12501 4.21866 4.12501 4.58333C4.12501 4.948 4.26987 5.29774 4.52773 5.5556C4.7856 5.81347 5.13533 5.95833 5.50001 5.95833C5.86468 5.95833 6.21441 5.81347 6.47228 5.5556C6.73014 5.29774 6.87501 4.948 6.87501 4.58333C6.87501 4.21866 6.73014 3.86892 6.47228 3.61106C6.21441 3.3532 5.86468 3.20833 5.50001 3.20833Z" fill="#A3B18A"/>
</svg>