<svg xmlns="http://www.w3.org/2000/svg" width="10" height="10" viewBox="0 0 10 10" fill="none">
<path d="M5.00001 8.75C4.47374 8.30109 3.98592 7.80896 3.54168 7.27875C2.87501 6.4825 2.08334 5.29666 2.08334 4.16666C2.08305 3.58956 2.25397 3.02535 2.57447 2.54543C2.89496 2.0655 3.35062 1.69144 3.88379 1.47058C4.41695 1.24972 5.00366 1.19199 5.56964 1.3047C6.13563 1.41741 6.65546 1.69549 7.06334 2.10375C7.33491 2.37411 7.55016 2.69564 7.69663 3.04974C7.8431 3.40384 7.9179 3.78347 7.91668 4.16666C7.91668 5.29666 7.12501 6.4825 6.45834 7.27875C6.0141 7.80896 5.52628 8.30109 5.00001 8.75ZM5.00001 2.91666C4.66849 2.91666 4.35055 3.04836 4.11613 3.28278C3.88171 3.5172 3.75001 3.83514 3.75001 4.16666C3.75001 4.49819 3.88171 4.81613 4.11613 5.05055C4.35055 5.28497 4.66849 5.41666 5.00001 5.41666C5.33153 5.41666 5.64947 5.28497 5.88389 5.05055C6.11831 4.81613 6.25001 4.49819 6.25001 4.16666C6.25001 3.83514 6.11831 3.5172 5.88389 3.28278C5.64947 3.04836 5.33153 2.91666 5.00001 2.91666Z" fill="white"/>
</svg>